<svg id="analytics" xmlns="http://www.w3.org/2000/svg" width="44.1" height="44.1" viewBox="0 0 44.1 44.1">
  <g id="Group_1173" data-name="Group 1173" transform="translate(0 14.7)">
    <g id="Group_1172" data-name="Group 1172">
      <path id="Path_63" data-name="Path 63" d="M43.181,198.229h-.919V171.585a.919.919,0,0,0-.919-.919H35.831a.919.919,0,0,0-.919.919v26.644H31.237V182.61a.919.919,0,0,0-.919-.919H24.806a.919.919,0,0,0-.919.919v15.619H20.212V178.935a.919.919,0,0,0-.919-.919H13.781a.919.919,0,0,0-.919.919v19.294H9.187V188.122a.919.919,0,0,0-.919-.919H2.756a.919.919,0,0,0-.919.919v10.106H.919a.919.919,0,0,0,0,1.838H43.181a.919.919,0,1,0,0-1.837Z" transform="translate(0 -170.666)" fill="#fff"/>
    </g>
  </g>
  <g id="Group_1175" data-name="Group 1175" transform="translate(1.837)">
    <g id="Group_1174" data-name="Group 1174">
      <path id="Path_64" data-name="Path 64" d="M58.083,0a3.653,3.653,0,0,0-3.155,5.531l-6.014,6.014a3.607,3.607,0,0,0-4.7.856L39.7,11.113c0-.029.009-.057.009-.088a3.675,3.675,0,0,0-7.35,0,3.631,3.631,0,0,0,.325,1.5L26.941,17.1a3.623,3.623,0,0,0-1.933-.564,3.675,3.675,0,1,0,3.675,3.675,3.624,3.624,0,0,0-.476-1.771l5.628-4.489a3.629,3.629,0,0,0,5.353-1.073l4.257,1.215a3.481,3.481,0,0,0-.062.606,3.675,3.675,0,1,0,6.83-1.856l6.016-6.016a3.621,3.621,0,0,0,1.854.522,3.675,3.675,0,0,0,0-7.35Z" transform="translate(-21.333)" fill="#fff"/>
    </g>
  </g>
</svg>
