<svg id="user_4_" data-name="user (4)" xmlns="http://www.w3.org/2000/svg" width="24.964" height="24.964" viewBox="0 0 24.964 24.964">
  <path id="Path_305" data-name="Path 305" d="M132.666,335.266a6.329,6.329,0,0,0-6.322,6.322c0,.2.01.4.029.6a12.514,12.514,0,0,0,12.586,0c.019-.2.029-.4.029-.6A6.329,6.329,0,0,0,132.666,335.266Zm0,0" transform="translate(-120.184 -318.919)" fill="#fafafa"/>
  <path id="Path_306" data-name="Path 306" d="M21.308,3.656A12.482,12.482,0,0,0,3.655,21.308a12.652,12.652,0,0,0,1.053.941,7.8,7.8,0,0,1,4.815-6.781,5.432,5.432,0,1,1,5.916,0,7.8,7.8,0,0,1,4.815,6.781,12.687,12.687,0,0,0,1.053-.941,12.482,12.482,0,0,0,0-17.652Zm0,0" transform="translate(0.001 0)" fill="#fafafa"/>
  <path id="Path_307" data-name="Path 307" d="M182.539,146.437a3.969,3.969,0,1,0-3.969,3.969A3.973,3.973,0,0,0,182.539,146.437Zm0,0" transform="translate(-166.088 -135.522)" fill="#fafafa"/>
</svg>
