<svg xmlns="http://www.w3.org/2000/svg" width="30.007" height="24.385" viewBox="0 0 30.007 24.385">
  <g id="trophy-cup-silhouette" transform="translate(0 -2.897)">
    <path id="Path_333" data-name="Path 333" d="M24.053,4.4c.019-.92-.016-1.5-.016-1.5L15.049,2.9h-.091L5.969,2.9s-.034.581-.015,1.5H0v.982c0,.224.038,5.511,3.3,8.407A7.375,7.375,0,0,0,8.361,15.61c.3,0,.614-.02.929-.048a8.687,8.687,0,0,0,3.928,3.191v4.313H8.882v2.7H7.448v1.515h15.11V25.768H21.125v-2.7H16.787V18.754a8.692,8.692,0,0,0,3.928-3.191c.317.027.629.047.931.047a7.375,7.375,0,0,0,5.06-1.817c3.263-2.9,3.3-8.183,3.3-8.407V4.4ZM4.611,12.33C2.747,10.68,2.2,7.857,2.033,6.368H6.067a19.635,19.635,0,0,0,1.5,6.195c.17.373.348.726.531,1.071A5.414,5.414,0,0,1,4.611,12.33Zm20.786,0a5.406,5.406,0,0,1-3.485,1.3c.182-.344.361-.7.531-1.071a19.606,19.606,0,0,0,1.5-6.195h4.034C27.812,7.856,27.262,10.679,25.4,12.33Z" fill="#fafafa"/>
  </g>
</svg>
