<svg xmlns="http://www.w3.org/2000/svg" width="27.406" height="27.406" viewBox="0 0 27.406 27.406">
  <g id="XMLID_915_" transform="translate(0 0)">
    <path id="XMLID_918_" d="M27.661,11.738a26.247,26.247,0,0,0-4.28,1.2,17.94,17.94,0,0,0-6.383,4,17.939,17.939,0,0,0-4,6.383,26.239,26.239,0,0,0-1.2,4.265L22.082,37.883a26.238,26.238,0,0,0,4.265-1.2,17.94,17.94,0,0,0,6.383-4,17.94,17.94,0,0,0,4-6.383,26.253,26.253,0,0,0,1.2-4.28ZM18.484,27.714l1.161,1.161L21.88,26.64l-1.161-1.161,1.137-1.137L23.017,25.5l2.538-2.538L24.394,21.8l1.137-1.137,1.161,1.161,2.453-2.453-1.161-1.161,1.137-1.137,3.46,3.46-1.137,1.137-1.161-1.161-2.453,2.453,1.161,1.161-1.137,1.137L26.692,24.1,24.155,26.64,25.316,27.8l-1.137,1.137-1.161-1.161-2.235,2.235,1.161,1.161-1.137,1.137-3.46-3.46Z" transform="translate(-11.161 -11.109)" fill="#fafafa"/>
    <path id="XMLID_920_" d="M352.914,8.952q.034-.257.065-.518a35.04,35.04,0,0,0,.083-7.572l-.076-.624-.624-.076a35.03,35.03,0,0,0-7.572.083q-.26.03-.518.065Z" transform="translate(-325.817 0)" fill="#fafafa"/>
    <path id="XMLID_921_" d="M.312,343.977q-.035.265-.067.533a35.032,35.032,0,0,0-.083,7.572l.076.624.624.076a29.558,29.558,0,0,0,3.3.162,37.1,37.1,0,0,0,4.27-.245q.268-.031.533-.067Z" transform="translate(0 -325.539)" fill="#fafafa"/>
  </g>
</svg>
