<svg xmlns="http://www.w3.org/2000/svg" xmlns:xlink="http://www.w3.org/1999/xlink" width="306" height="221" viewBox="0 0 306 221">
  <defs>
    <filter id="Rectangle_362" x="10" y="18" width="296" height="203" filterUnits="userSpaceOnUse">
      <feOffset dy="3" input="SourceAlpha"/>
      <feGaussianBlur stdDeviation="3" result="blur"/>
      <feFlood flood-opacity="0.161"/>
      <feComposite operator="in" in2="blur"/>
      <feComposite in="SourceGraphic"/>
    </filter>
    <linearGradient id="linear-gradient" x1="0.5" x2="0.5" y2="1" gradientUnits="objectBoundingBox">
      <stop offset="0" stop-color="#fff" stop-opacity="0.302"/>
      <stop offset="1" stop-color="#fff" stop-opacity="0"/>
    </linearGradient>
    <linearGradient id="linear-gradient-2" x1="0.5" x2="0.5" y2="1" gradientUnits="objectBoundingBox">
      <stop offset="0" stop-color="#fff" stop-opacity="0"/>
      <stop offset="1" stop-color="#fff" stop-opacity="0.302"/>
    </linearGradient>
  </defs>
  <g id="Group_1679" data-name="Group 1679" transform="translate(-16289 -7131)">
    <g transform="matrix(1, 0, 0, 1, 16289, 7131)" filter="url(#Rectangle_362)">
      <rect id="Rectangle_362-2" data-name="Rectangle 362" width="278" height="185" rx="14" transform="translate(19 24)" fill="#222" opacity="0.49"/>
    </g>
    <rect id="Rectangle_358" data-name="Rectangle 358" width="278" height="185" rx="14" transform="translate(16289 7131)" fill="#049d2d"/>
    <path id="Polygon_2" data-name="Polygon 2" d="M53.5,0,107,88H0Z" transform="translate(16337.5 7273.5) rotate(-90)" fill="url(#linear-gradient)"/>
    <path id="Polygon_3" data-name="Polygon 3" d="M53.5,0,107,88H0Z" transform="translate(16515.5 7166.5) rotate(90)" fill="url(#linear-gradient-2)"/>
    <g id="Group_1676" data-name="Group 1676" transform="translate(-1)">
      <g id="Group_1673" data-name="Group 1673">
        <circle id="Ellipse_28" data-name="Ellipse 28" cx="1" cy="1" r="1" transform="translate(16350 7134)" fill="#fff"/>
        <circle id="Ellipse_37" data-name="Ellipse 37" cx="1" cy="1" r="1" transform="translate(16350 7154)" fill="#fff" opacity="0.87"/>
        <circle id="Ellipse_29" data-name="Ellipse 29" cx="1" cy="1" r="1" transform="translate(16350 7139)" fill="#fff"/>
        <circle id="Ellipse_36" data-name="Ellipse 36" cx="1" cy="1" r="1" transform="translate(16350 7159)" fill="#fff" opacity="0.77"/>
        <circle id="Ellipse_32" data-name="Ellipse 32" cx="1" cy="1" r="1" transform="translate(16350 7144)" fill="#fff"/>
        <circle id="Ellipse_35" data-name="Ellipse 35" cx="1" cy="1" r="1" transform="translate(16350 7164)" fill="#fff" opacity="0.59"/>
        <circle id="Ellipse_33" data-name="Ellipse 33" cx="1" cy="1" r="1" transform="translate(16350 7149)" fill="#fff"/>
        <circle id="Ellipse_34" data-name="Ellipse 34" cx="1" cy="1" r="1" transform="translate(16350 7169)" fill="#fff" opacity="0.4"/>
        <circle id="Ellipse_38" data-name="Ellipse 38" cx="1" cy="1" r="1" transform="translate(16350 7174)" fill="#fff" opacity="0.2"/>
      </g>
      <g id="Group_1674" data-name="Group 1674" transform="translate(9)">
        <circle id="Ellipse_28-2" data-name="Ellipse 28" cx="1" cy="1" r="1" transform="translate(16350 7134)" fill="#fff"/>
        <circle id="Ellipse_37-2" data-name="Ellipse 37" cx="1" cy="1" r="1" transform="translate(16350 7154)" fill="#fff" opacity="0.42"/>
        <circle id="Ellipse_29-2" data-name="Ellipse 29" cx="1" cy="1" r="1" transform="translate(16350 7139)" fill="#fff"/>
        <circle id="Ellipse_36-2" data-name="Ellipse 36" cx="1" cy="1" r="1" transform="translate(16350 7159)" fill="#fff" opacity="0.27"/>
        <circle id="Ellipse_32-2" data-name="Ellipse 32" cx="1" cy="1" r="1" transform="translate(16350 7144)" fill="#fff"/>
        <circle id="Ellipse_33-2" data-name="Ellipse 33" cx="1" cy="1" r="1" transform="translate(16350 7149)" fill="#fff" opacity="0.6"/>
      </g>
      <g id="Group_1675" data-name="Group 1675" transform="translate(18)">
        <circle id="Ellipse_28-3" data-name="Ellipse 28" cx="1" cy="1" r="1" transform="translate(16350 7134)" fill="#fff"/>
        <circle id="Ellipse_37-3" data-name="Ellipse 37" cx="1" cy="1" r="1" transform="translate(16350 7154)" fill="#fff"/>
        <circle id="Ellipse_29-3" data-name="Ellipse 29" cx="1" cy="1" r="1" transform="translate(16350 7139)" fill="#fff"/>
        <circle id="Ellipse_36-3" data-name="Ellipse 36" cx="1" cy="1" r="1" transform="translate(16350 7159)" fill="#fff"/>
        <circle id="Ellipse_32-3" data-name="Ellipse 32" cx="1" cy="1" r="1" transform="translate(16350 7144)" fill="#fff"/>
        <circle id="Ellipse_35-2" data-name="Ellipse 35" cx="1" cy="1" r="1" transform="translate(16350 7164)" fill="#fff"/>
        <circle id="Ellipse_33-3" data-name="Ellipse 33" cx="1" cy="1" r="1" transform="translate(16350 7149)" fill="#fff"/>
        <circle id="Ellipse_34-2" data-name="Ellipse 34" cx="1" cy="1" r="1" transform="translate(16350 7169)" fill="#fff" opacity="0.82"/>
        <circle id="Ellipse_38-2" data-name="Ellipse 38" cx="1" cy="1" r="1" transform="translate(16350 7174)" fill="#fff" opacity="0.68"/>
        <circle id="Ellipse_39" data-name="Ellipse 39" cx="1" cy="1" r="1" transform="translate(16350 7179)" fill="#fff" opacity="0.54"/>
        <circle id="Ellipse_40" data-name="Ellipse 40" cx="1" cy="1" r="1" transform="translate(16350 7184)" fill="#fff" opacity="0.39"/>
        <circle id="Ellipse_41" data-name="Ellipse 41" cx="1" cy="1" r="1" transform="translate(16350 7189)" fill="#fff" opacity="0.28"/>
        <circle id="Ellipse_42" data-name="Ellipse 42" cx="1" cy="1" r="1" transform="translate(16350 7194)" fill="#fff" opacity="0.16"/>
      </g>
    </g>
    <g id="Group_1677" data-name="Group 1677" transform="translate(32885 14447) rotate(180)">
      <g id="Group_1673-2" data-name="Group 1673">
        <circle id="Ellipse_28-4" data-name="Ellipse 28" cx="1" cy="1" r="1" transform="translate(16350 7134)" fill="#fff"/>
        <circle id="Ellipse_37-4" data-name="Ellipse 37" cx="1" cy="1" r="1" transform="translate(16350 7154)" fill="#fff" opacity="0.87"/>
        <circle id="Ellipse_29-4" data-name="Ellipse 29" cx="1" cy="1" r="1" transform="translate(16350 7139)" fill="#fff"/>
        <circle id="Ellipse_36-4" data-name="Ellipse 36" cx="1" cy="1" r="1" transform="translate(16350 7159)" fill="#fff" opacity="0.77"/>
        <circle id="Ellipse_32-4" data-name="Ellipse 32" cx="1" cy="1" r="1" transform="translate(16350 7144)" fill="#fff"/>
        <circle id="Ellipse_35-3" data-name="Ellipse 35" cx="1" cy="1" r="1" transform="translate(16350 7164)" fill="#fff" opacity="0.59"/>
        <circle id="Ellipse_33-4" data-name="Ellipse 33" cx="1" cy="1" r="1" transform="translate(16350 7149)" fill="#fff"/>
        <circle id="Ellipse_34-3" data-name="Ellipse 34" cx="1" cy="1" r="1" transform="translate(16350 7169)" fill="#fff" opacity="0.4"/>
        <circle id="Ellipse_38-3" data-name="Ellipse 38" cx="1" cy="1" r="1" transform="translate(16350 7174)" fill="#fff" opacity="0.2"/>
      </g>
      <g id="Group_1674-2" data-name="Group 1674" transform="translate(9)">
        <circle id="Ellipse_28-5" data-name="Ellipse 28" cx="1" cy="1" r="1" transform="translate(16350 7134)" fill="#fff"/>
        <circle id="Ellipse_37-5" data-name="Ellipse 37" cx="1" cy="1" r="1" transform="translate(16350 7154)" fill="#fff" opacity="0.42"/>
        <circle id="Ellipse_29-5" data-name="Ellipse 29" cx="1" cy="1" r="1" transform="translate(16350 7139)" fill="#fff"/>
        <circle id="Ellipse_36-5" data-name="Ellipse 36" cx="1" cy="1" r="1" transform="translate(16350 7159)" fill="#fff" opacity="0.27"/>
        <circle id="Ellipse_32-5" data-name="Ellipse 32" cx="1" cy="1" r="1" transform="translate(16350 7144)" fill="#fff"/>
        <circle id="Ellipse_33-5" data-name="Ellipse 33" cx="1" cy="1" r="1" transform="translate(16350 7149)" fill="#fff" opacity="0.6"/>
      </g>
      <g id="Group_1675-2" data-name="Group 1675" transform="translate(18)">
        <circle id="Ellipse_28-6" data-name="Ellipse 28" cx="1" cy="1" r="1" transform="translate(16350 7134)" fill="#fff"/>
        <circle id="Ellipse_37-6" data-name="Ellipse 37" cx="1" cy="1" r="1" transform="translate(16350 7154)" fill="#fff"/>
        <circle id="Ellipse_29-6" data-name="Ellipse 29" cx="1" cy="1" r="1" transform="translate(16350 7139)" fill="#fff"/>
        <circle id="Ellipse_36-6" data-name="Ellipse 36" cx="1" cy="1" r="1" transform="translate(16350 7159)" fill="#fff"/>
        <circle id="Ellipse_32-6" data-name="Ellipse 32" cx="1" cy="1" r="1" transform="translate(16350 7144)" fill="#fff"/>
        <circle id="Ellipse_35-4" data-name="Ellipse 35" cx="1" cy="1" r="1" transform="translate(16350 7164)" fill="#fff"/>
        <circle id="Ellipse_33-6" data-name="Ellipse 33" cx="1" cy="1" r="1" transform="translate(16350 7149)" fill="#fff"/>
        <circle id="Ellipse_34-4" data-name="Ellipse 34" cx="1" cy="1" r="1" transform="translate(16350 7169)" fill="#fff" opacity="0.82"/>
        <circle id="Ellipse_38-4" data-name="Ellipse 38" cx="1" cy="1" r="1" transform="translate(16350 7174)" fill="#fff" opacity="0.68"/>
        <circle id="Ellipse_39-2" data-name="Ellipse 39" cx="1" cy="1" r="1" transform="translate(16350 7179)" fill="#fff" opacity="0.54"/>
        <circle id="Ellipse_40-2" data-name="Ellipse 40" cx="1" cy="1" r="1" transform="translate(16350 7184)" fill="#fff" opacity="0.39"/>
        <circle id="Ellipse_41-2" data-name="Ellipse 41" cx="1" cy="1" r="1" transform="translate(16350 7189)" fill="#fff" opacity="0.28"/>
        <circle id="Ellipse_42-2" data-name="Ellipse 42" cx="1" cy="1" r="1" transform="translate(16350 7194)" fill="#fff" opacity="0.16"/>
      </g>
    </g>
    <rect id="Rectangle_359" data-name="Rectangle 359" width="24" height="18" rx="1" transform="translate(16313 7186)" fill="#00641b"/>
    <rect id="Rectangle_360" data-name="Rectangle 360" width="24" height="8" transform="translate(16313 7191)" fill="#333" opacity="0.21"/>
    <rect id="Rectangle_361" data-name="Rectangle 361" width="18" height="8" transform="translate(16329 7186) rotate(90)" fill="#333" opacity="0.5"/>
    <text id="VISA" transform="translate(16494 7170)" fill="#fff" font-size="20" font-family="Roboto-BoldItalic, Roboto" font-weight="700" font-style="italic" letter-spacing="0.05em"><tspan x="0" y="0">VISA</tspan></text>
    <text id="_4256" data-name="4256" transform="translate(16313 7239)" fill="#fff" font-size="15" font-family="Roboto-Regular, Roboto" letter-spacing="0.05em"><tspan x="0" y="0">4256</tspan></text>
    <text id="_4256-2" data-name="4256" transform="translate(16367 7239)" fill="#fff" font-size="15" font-family="Roboto-Regular, Roboto" letter-spacing="0.05em"><tspan x="0" y="0">4256</tspan></text>
    <text id="_4256-3" data-name="4256" transform="translate(16422 7239)" fill="#fff" font-size="15" font-family="Roboto-Regular, Roboto" letter-spacing="0.05em"><tspan x="0" y="0">4256</tspan></text>
    <text id="_4256-4" data-name="4256" transform="translate(16475 7239)" fill="#fff" font-size="15" font-family="Roboto-Regular, Roboto" letter-spacing="0.05em"><tspan x="0" y="0">4256</tspan></text>
    <text id="CARD_HOLDER" data-name="CARD HOLDER" transform="translate(16317 7286)" fill="#fff" font-size="6" font-family="Roboto-Regular, Roboto" letter-spacing="0.05em"><tspan x="0" y="0">CARD HOLDER</tspan></text>
    <text id="CVV" transform="translate(16450 7286)" fill="#fff" font-size="6" font-family="Roboto-Regular, Roboto" letter-spacing="0.05em"><tspan x="0" y="0">CVV</tspan></text>
    <text id="John_Smith" data-name="John Smith" transform="translate(16317 7300)" fill="#fff" font-size="8" font-family="Roboto-Medium, Roboto" font-weight="500" letter-spacing="0.05em"><tspan x="0" y="0">John Smith</tspan></text>
    <g id="Group_1678" data-name="Group 1678" transform="translate(-10)">
      <text id="EXP" transform="translate(16402 7286)" fill="#fff" font-size="6" font-family="Roboto-Regular, Roboto" letter-spacing="0.05em"><tspan x="0" y="0">EXP</tspan></text>
      <text id="_09_20" data-name="09/20" transform="translate(16402 7300)" fill="#fff" font-size="8" font-family="Roboto-Medium, Roboto" font-weight="500" letter-spacing="0.05em"><tspan x="0" y="0">09/20</tspan></text>
    </g>
    <text id="_345" data-name="345" transform="translate(16450 7300)" fill="#fff" font-size="8" font-family="Roboto-Medium, Roboto" font-weight="500" letter-spacing="0.05em"><tspan x="0" y="0">345</tspan></text>
  </g>
</svg>
