<svg xmlns="http://www.w3.org/2000/svg" xmlns:xlink="http://www.w3.org/1999/xlink" width="25" height="14" viewBox="0 0 25 14">
  <defs>
    <clipPath id="clip-path">
      <rect id="Rectangle_131" data-name="Rectangle 131" width="25" height="14" transform="translate(0)" fill="#fff"/>
    </clipPath>
  </defs>
  <g id="Mask_Group_1" data-name="Mask Group 1" clip-path="url(#clip-path)">
    <g id="success" transform="translate(-0.892 -13.697)">
      <g id="Group_342" data-name="Group 342" transform="translate(0 0)">
        <g id="Group_341" data-name="Group 341">
          <path id="Path_127" data-name="Path 127" d="M147.45,10.763h2.722l1.491,1.77a.6.6,0,0,0,.934,0l1.491-1.77h2.722a.9.9,0,0,0,.873-.929V4.068l1.67-1.8a.965.965,0,0,0,.251-.693A.955.955,0,0,0,159.3.906l-.755-.683a.832.832,0,0,0-1.175.043l-1.657,1.721H147.45a.9.9,0,0,0-.873.929V9.834A.9.9,0,0,0,147.45,10.763Zm-.112-7.848a.116.116,0,0,1,.112-.119h7.48l-1.511,1.569a.423.423,0,0,0-.006.573.365.365,0,0,0,.538.007L157.9.846a.107.107,0,0,1,.151-.006l.755.683a.122.122,0,0,1,.039.086.123.123,0,0,1-.032.089l-6.548,7.067a.106.106,0,0,1-.079.035h0a.106.106,0,0,1-.079-.035l-3.192-3.4a.125.125,0,0,1,0-.169l.7-.741a.107.107,0,0,1,.158,0l1.859,1.978a.6.6,0,0,0,.881.006l.557-.579a.423.423,0,0,0,.007-.573.365.365,0,0,0-.538-.007l-.462.48-1.765-1.878a.838.838,0,0,0-1.235,0l-.7.741a.973.973,0,0,0,0,1.314l3.192,3.4a.842.842,0,0,0,.617.272h0a.842.842,0,0,0,.619-.277l4.117-4.443V9.834a.116.116,0,0,1-.112.119h-2.892a.371.371,0,0,0-.283.135l-1.5,1.786-1.5-1.786a.371.371,0,0,0-.283-.135H147.45a.116.116,0,0,1-.112-.119Z" transform="translate(-139.138 0)" fill="#fff"/>
          <path id="Path_128" data-name="Path 128" d="M25.6,276.623H22.537v-2.216a.9.9,0,0,0-.873-.929h-1.59v-2.216a.9.9,0,0,0-.873-.929H18.1v-2.216a.9.9,0,0,0-.873-.929h-.9v-2.216a.9.9,0,0,0-.873-.929H10.53a.9.9,0,0,0-.873.929v2.216h-.9a.9.9,0,0,0-.873.929v2.216h-1.1a.9.9,0,0,0-.873.929v2.216H4.323a.9.9,0,0,0-.873.929v2.216H.382a.406.406,0,0,0,0,.81H6.408a.406.406,0,0,0,0-.81h-2.2v-2.216a.116.116,0,0,1,.112-.119H16.134a.406.406,0,0,0,0-.81H6.674v-2.216a.116.116,0,0,1,.112-.119h3.559a.406.406,0,0,0,0-.81h-1.7v-2.216A.116.116,0,0,1,8.756,268h4.532a.406.406,0,0,0,0-.81H10.418v-2.216a.116.116,0,0,1,.112-.119h4.926a.116.116,0,0,1,.112.119v2.215h-.925a.406.406,0,0,0,0,.81H17.23a.116.116,0,0,1,.112.119v2.216h-5.63a.406.406,0,0,0,0,.81H19.2a.116.116,0,0,1,.112.119v2.216h-1.75a.406.406,0,0,0,0,.81h4.1a.116.116,0,0,1,.112.119v2.216H7.919a.406.406,0,0,0,0,.81H25.6a.406.406,0,0,0,0-.81Z" transform="translate(-0.001 -249.786)" fill="#fff"/>
        </g>
      </g>
    </g>
  </g>
</svg>
