<svg id="Calendar" xmlns="http://www.w3.org/2000/svg" width="19.038" height="19.038" viewBox="0 0 19.038 19.038">
  <path id="Path_141" data-name="Path 141" d="M19.452,3.9H17.865V3.269a1.269,1.269,0,1,0-2.538,0V3.9H12.788V3.269a1.269,1.269,0,1,0-2.538,0V3.9H7.712V3.269a1.269,1.269,0,1,0-2.538,0V3.9H3.587A1.587,1.587,0,0,0,2,5.49V18.183a1.587,1.587,0,0,0,1.587,1.587h8.885a.317.317,0,1,0,0-.635H3.587a.955.955,0,0,1-.952-.952V8.346H20.4V13.74a.317.317,0,1,0,.635,0V5.49A1.587,1.587,0,0,0,19.452,3.9Zm-3.49-.635a.635.635,0,1,1,1.269,0v1.9a.635.635,0,1,1-1.269,0Zm-5.077,0a.635.635,0,1,1,1.269,0v1.9a.635.635,0,1,1-1.269,0Zm-5.077,0a.635.635,0,1,1,1.269,0v1.9a.635.635,0,1,1-1.269,0ZM20.4,7.712H2.635V5.49a.955.955,0,0,1,.952-.952H5.173v.635a1.269,1.269,0,1,0,2.538,0V4.538H10.25v.635a1.269,1.269,0,1,0,2.538,0V4.538h2.538v.635a1.269,1.269,0,1,0,2.538,0V4.538h1.587a.955.955,0,0,1,.952.952Z" transform="translate(-2 -2)" fill="#fff"/>
  <path id="Path_142" data-name="Path 142" d="M24.538,27.635A.635.635,0,0,0,23.9,27H22.635a.635.635,0,0,0-.635.635v.952a.635.635,0,0,0,.635.635H23.9a.635.635,0,0,0,.635-.635Zm-1.9.952v-.952H23.9v.952Z" transform="translate(-15.654 -19.067)" fill="#fff"/>
  <path id="Path_143" data-name="Path 143" d="M12.538,27.635A.635.635,0,0,0,11.9,27H10.635a.635.635,0,0,0-.635.635v.952a.635.635,0,0,0,.635.635H11.9a.635.635,0,0,0,.635-.635Zm-1.9.952v-.952H11.9v.952Z" transform="translate(-7.462 -19.067)" fill="#fff"/>
  <path id="Path_144" data-name="Path 144" d="M47.9,29.221a.635.635,0,0,0,.635-.635v-.952A.635.635,0,0,0,47.9,27H46.635a.635.635,0,0,0-.635.635v.952a.635.635,0,0,0,.635.635Zm-1.269-1.587H47.9v.952H46.635Z" transform="translate(-32.039 -19.067)" fill="#fff"/>
  <path id="Path_145" data-name="Path 145" d="M24.538,36.635A.635.635,0,0,0,23.9,36H22.635a.635.635,0,0,0-.635.635v.952a.635.635,0,0,0,.635.635H23.9a.635.635,0,0,0,.635-.635Zm-1.9.952v-.952H23.9v.952Z" transform="translate(-15.654 -25.212)" fill="#fff"/>
  <path id="Path_146" data-name="Path 146" d="M12.538,36.635A.635.635,0,0,0,11.9,36H10.635a.635.635,0,0,0-.635.635v.952a.635.635,0,0,0,.635.635H11.9a.635.635,0,0,0,.635-.635Zm-1.9.952v-.952H11.9v.952Z" transform="translate(-7.462 -25.212)" fill="#fff"/>
  <path id="Path_147" data-name="Path 147" d="M23.9,45H22.635a.635.635,0,0,0-.635.635v.952a.635.635,0,0,0,.635.635H23.9a.635.635,0,0,0,.635-.635v-.952A.635.635,0,0,0,23.9,45Zm-1.269,1.587v-.952H23.9v.952Z" transform="translate(-15.654 -31.356)" fill="#fff"/>
  <path id="Path_148" data-name="Path 148" d="M34.635,29.221H35.9a.635.635,0,0,0,.635-.635v-.952A.635.635,0,0,0,35.9,27H34.635a.635.635,0,0,0-.635.635v.952A.635.635,0,0,0,34.635,29.221Zm0-1.587H35.9v.952H34.635Z" transform="translate(-23.846 -19.067)" fill="#fff"/>
  <path id="Path_149" data-name="Path 149" d="M34,37.587a.635.635,0,0,0,.635.635.317.317,0,1,0,0-.635v-.952H35.9a.317.317,0,1,0,0-.635H34.635a.635.635,0,0,0-.635.635Z" transform="translate(-23.846 -25.212)" fill="#fff"/>
  <path id="Path_150" data-name="Path 150" d="M11.9,45H10.635a.635.635,0,0,0-.635.635v.952a.635.635,0,0,0,.635.635H11.9a.635.635,0,0,0,.635-.635v-.952A.635.635,0,0,0,11.9,45Zm-1.269,1.587v-.952H11.9v.952Z" transform="translate(-7.462 -31.356)" fill="#fff"/>
  <path id="Path_151" data-name="Path 151" d="M40.125,36a4.125,4.125,0,1,0,4.125,4.125A4.125,4.125,0,0,0,40.125,36Zm0,7.615a3.49,3.49,0,1,1,3.49-3.49A3.49,3.49,0,0,1,40.125,43.615Z" transform="translate(-25.212 -25.212)" fill="#fff"/>
  <path id="Path_152" data-name="Path 152" d="M45.889,44.608l-2.468,2.468L42.3,45.954a.317.317,0,1,0-.449.449L43.2,47.749a.317.317,0,0,0,.449,0l2.692-2.692a.317.317,0,1,0-.449-.449Z" transform="translate(-29.143 -31.025)" fill="#fff"/>
</svg>
