<svg xmlns="http://www.w3.org/2000/svg" width="28.126" height="22.808" viewBox="0 0 28.126 22.808">
  <g id="folder" transform="translate(0 -48.403)">
    <g id="Group_364" data-name="Group 364" transform="translate(0 48.403)">
      <g id="Group_363" data-name="Group 363" transform="translate(0 0)">
        <path id="Path_30" data-name="Path 30" d="M22.172,50.454H7.665a.814.814,0,0,1-.814-.814v-.407a.83.83,0,0,0-.83-.83H1.659A1.659,1.659,0,0,0,0,50.062V64.024L2.129,53.666a.814.814,0,0,1,.8-.65H23.832v-.9A1.659,1.659,0,0,0,22.172,50.454Z" transform="translate(0 -48.403)" fill="#fff"/>
      </g>
    </g>
    <g id="Group_366" data-name="Group 366" transform="translate(0.371 54.644)">
      <g id="Group_365" data-name="Group 365" transform="translate(0 0)">
        <path id="Path_31" data-name="Path 31" d="M32.841,162.01H9.965l-3.2,15.577a.824.824,0,0,0,.807.99H31.375a1.659,1.659,0,0,0,1.649-1.477l1.466-13.248A1.659,1.659,0,0,0,32.841,162.01Z" transform="translate(-6.746 -162.01)" fill="#fff"/>
      </g>
    </g>
  </g>
</svg>
