<svg id="search" xmlns="http://www.w3.org/2000/svg" width="16.954" height="16.954" viewBox="0 0 16.954 16.954">
  <path id="Path_153" data-name="Path 153" d="M15.532,19.064a3.532,3.532,0,1,1,3.532-3.532A3.536,3.536,0,0,1,15.532,19.064Zm0-6.358a2.826,2.826,0,1,0,2.826,2.826A2.829,2.829,0,0,0,15.532,12.706Z" transform="translate(-3.523 -3.523)" fill="#fff"/>
  <path id="Path_154" data-name="Path 154" d="M22.452,22.806a.355.355,0,0,1-.25-.1l-2.167-2.167a.353.353,0,0,1,.5-.5L22.7,22.2a.353.353,0,0,1-.249.6Z" transform="translate(-5.851 -5.852)" fill="#fff"/>
  <path id="Path_155" data-name="Path 155" d="M2.473,21.358H1.06A1.061,1.061,0,0,1,0,20.3V16.06A1.061,1.061,0,0,1,1.06,15H2.473a1.061,1.061,0,0,1,1.06,1.06V20.3A1.061,1.061,0,0,1,2.473,21.358ZM1.06,15.706a.354.354,0,0,0-.353.353V20.3a.354.354,0,0,0,.353.353H2.473a.354.354,0,0,0,.353-.353V16.06a.354.354,0,0,0-.353-.353Z" transform="translate(0 -4.403)" fill="#fff"/>
  <path id="Path_156" data-name="Path 156" d="M8.473,20.184H7.06A1.061,1.061,0,0,1,6,19.124V12.06A1.061,1.061,0,0,1,7.06,11H8.473a1.061,1.061,0,0,1,1.06,1.06v7.064A1.061,1.061,0,0,1,8.473,20.184ZM7.06,11.706a.354.354,0,0,0-.353.353v7.064a.354.354,0,0,0,.353.353H8.473a.354.354,0,0,0,.353-.353V12.06a.354.354,0,0,0-.353-.353Z" transform="translate(-1.761 -3.229)" fill="#fff"/>
  <path id="Path_157" data-name="Path 157" d="M12.353,9.239A.353.353,0,0,1,12,8.885V6.06A1.061,1.061,0,0,1,13.06,5h1.413a1.061,1.061,0,0,1,1.06,1.06V8.179a.353.353,0,0,1-.706,0V6.06a.354.354,0,0,0-.353-.353H13.06a.354.354,0,0,0-.353.353V8.885A.353.353,0,0,1,12.353,9.239Z" transform="translate(-3.523 -1.468)" fill="#fff"/>
  <path id="Path_158" data-name="Path 158" d="M21.179,8.477a.353.353,0,0,1-.353-.353V1.06a.354.354,0,0,0-.353-.353H19.06a.354.354,0,0,0-.353.353V6.711a.353.353,0,1,1-.706,0V1.06A1.061,1.061,0,0,1,19.06,0h1.413a1.061,1.061,0,0,1,1.06,1.06V8.124A.353.353,0,0,1,21.179,8.477Z" transform="translate(-5.284)" fill="#fff"/>
</svg>
