<svg xmlns="http://www.w3.org/2000/svg" width="20.905" height="19.163" viewBox="0 0 20.905 19.163">
  <g id="paper-clip" transform="translate(0 -21.329)">
    <path id="Path_286" data-name="Path 286" d="M19.854,23.146l-.766-.766a3.59,3.59,0,0,0-5.076,0h0L4.228,32.164a2.538,2.538,0,0,0,0,3.59l.51.51a2.625,2.625,0,0,0,3.59,0l7.224-7.224a.436.436,0,1,0-.605-.627l-.011.011L7.712,35.648a1.726,1.726,0,0,1-2.358,0l-.51-.51a1.667,1.667,0,0,1,0-2.358h0L14.627,23a2.787,2.787,0,0,1,3.845,0l.766.766a2.719,2.719,0,0,1,0,3.845L8.328,38.517a3.771,3.771,0,0,1-5.332,0L1.975,37.5a3.771,3.771,0,0,1,0-5.332l8.35-8.35a.436.436,0,0,0-.605-.627l-.011.011-8.35,8.349a4.641,4.641,0,0,0,0,6.563h0L2.38,39.133a4.641,4.641,0,0,0,6.563,0h0l10.91-10.91a3.59,3.59,0,0,0,0-5.076Z" transform="translate(0 0)" fill="#e4e4e4"/>
    <path id="Path_287" data-name="Path 287" d="M5.661,40.492a4.617,4.617,0,0,1-3.282-1.36l-1.02-1.02a4.641,4.641,0,0,1,0-6.563h0l8.35-8.35a.436.436,0,1,1,.627.605l-.011.011-8.35,8.349a3.771,3.771,0,0,0,0,5.332L3,38.517a3.771,3.771,0,0,0,5.332,0l10.91-10.91a2.719,2.719,0,0,0,0-3.845L18.472,23a2.787,2.787,0,0,0-3.845,0L4.843,32.78a1.667,1.667,0,0,0,0,2.358h0l.51.51a1.726,1.726,0,0,0,2.358,0l7.224-7.224a.436.436,0,0,1,.627.605l-.011.011L8.328,36.264a2.625,2.625,0,0,1-3.59,0l-.51-.51a2.538,2.538,0,0,1,0-3.59l9.784-9.784a3.59,3.59,0,0,1,5.076,0h0l.766.766a3.59,3.59,0,0,1,0,5.076h0L8.943,39.133A4.617,4.617,0,0,1,5.661,40.492Z" transform="translate(0 0)" fill="#e4e4e4"/>
  </g>
</svg>
