<svg xmlns="http://www.w3.org/2000/svg" width="20" height="16" viewBox="0 0 20 16">
  <g id="home_1_" data-name="home (1)" transform="translate(0.001 -46.994)">
    <g id="Group_880" data-name="Group 880" transform="translate(-0.001 46.994)">
      <path id="Path_193" data-name="Path 193" d="M72.95,120.939l-7.24,5.66a.155.155,0,0,1-.006.036.156.156,0,0,0-.006.036V132.4a.716.716,0,0,0,.239.537.8.8,0,0,0,.567.227h4.835v-4.585h3.224v4.586H79.4a.8.8,0,0,0,.567-.227.716.716,0,0,0,.24-.537v-5.731a.161.161,0,0,0-.013-.071Z" transform="translate(-62.95 -117.167)" fill="#fff"/>
      <path id="Path_194" data-name="Path 194" d="M19.861,54.457l-2.717-2.173V47.412a.364.364,0,0,0-.112-.275.393.393,0,0,0-.285-.107H14.366a.4.4,0,0,0-.285.107.365.365,0,0,0-.111.275V49.74L10.942,47.3a1.586,1.586,0,0,0-1.885,0L.137,54.457A.343.343,0,0,0,0,54.714a.377.377,0,0,0,.087.281l.769.884a.428.428,0,0,0,.261.131.474.474,0,0,0,.3-.084L10,49.036l8.584,6.89a.392.392,0,0,0,.261.083h.037a.429.429,0,0,0,.261-.131l.769-.884A.377.377,0,0,0,20,54.714.344.344,0,0,0,19.861,54.457Z" transform="translate(0.001 -46.994)" fill="#fff"/>
    </g>
  </g>
</svg>
