<svg id="Capa_1" enable-background="new 0 0 512 512" height="512" viewBox="0 0 512 512" width="512" xmlns="http://www.w3.org/2000/svg"><g><g><path fill="#fff" d="m282.02 152h-51.96c9.99-11.08 19.42-19.82 25.96-25.49 6.55 5.68 16 14.41 26 25.49z"/><path fill="#fff" d="m305.37 182h-98.68c-14.35 21.8-25.69 47.7-25.69 75.11 0 23.9 8.59 49.06 25.53 74.89h98.94c16.94-25.83 25.53-50.99 25.53-74.89 0-27.45-11.3-53.33-25.63-75.11zm-34.37 120h-30v-90h30z"/><path fill="#fff" d="m451 62.11v185.26c0 28.96-4.42 57.33-13.16 84.63h-97.44c13.69-25.27 20.6-50.37 20.6-74.89 0-67.05-51.17-128.02-105-168.72-53.9 40.75-105 101.7-105 168.72 0 24.52 6.91 49.62 20.6 74.89h-97.44c-8.74-27.3-13.16-55.67-13.16-84.63v-185.26h15c107.13 0 166.39-55.25 180-62.11 13.06 6.59 72.75 62.11 180 62.11z"/></g><g><g><path fill="#fff" d="m451 437h-390v-75h390z"/></g></g><g><path fill="#fff" d="m343.4 467c-42.88 32.82-83.82 43.4-87.4 45-1.99-.89-44.57-12.63-87.28-45z"/></g></g></svg>