<svg xmlns="http://www.w3.org/2000/svg" width="24" height="16" viewBox="0 0 24 16">
  <g id="_06-score" data-name="06-score" transform="translate(0 -24)">
    <g id="Glyph" transform="translate(0 24)">
      <path id="Path_273" data-name="Path 273" d="M0,26V38a2,2,0,0,0,2,2h9.012V24H2a2,2,0,0,0-2,2Zm5.007,1a3.005,3.005,0,0,1,3,3v4A3,3,0,0,1,2,34V30a3.005,3.005,0,0,1,3-3Z" transform="translate(0 -24)" fill="#fff"/>
      <path id="Path_274" data-name="Path 274" d="M17,50.008a1,1,0,0,0,1-1V45a1,1,0,0,0-2,0v4.006A1,1,0,0,0,17,50.008Z" transform="translate(-12.001 -39.004)" fill="#fff"/>
      <path id="Path_275" data-name="Path 275" d="M61.012,24H52V40h9.012a2,2,0,0,0,2-2V26A2,2,0,0,0,61.012,24Zm0,10A3,3,0,0,1,55,34V30a3,3,0,0,1,6.008,0Z" transform="translate(-39.015 -24)" fill="#fff"/>
      <path id="Path_276" data-name="Path 276" d="M73,44a1,1,0,0,0-1,1v4.006a1,1,0,1,0,2,0V45A1,1,0,0,0,73,44Z" transform="translate(-54.002 -39.004)" fill="#fff"/>
    </g>
  </g>
</svg>
