<svg xmlns="http://www.w3.org/2000/svg" width="20.944" height="28.13" viewBox="0 0 20.944 28.13">
  <g id="clipboard" transform="translate(287.012 609.333)">
    <g id="Group_1906" data-name="Group 1906" transform="translate(-287.012 -609.333)">
      <g id="Group_1905" data-name="Group 1905" transform="translate(0 0)">
        <path id="Path_331" data-name="Path 331" d="M144.973,2.133h-2.058a.578.578,0,0,1-.542-.433,2.094,2.094,0,0,0-2.13-1.7,2.13,2.13,0,0,0-2.13,1.733.542.542,0,0,1-.542.4h-1.986V5.744h9.388Z" transform="translate(-129.807 -0.001)" fill="#fafafa"/>
        <path id="Path_332" data-name="Path 332" d="M72.931,84.307V63.617a1.48,1.48,0,0,0-1.476-1.484q-.056,0-.112,0H68.237v1.842c0,.289-.181.686-.469.686H57.116c-.289,0-.433-.4-.433-.686V62.137H53.577A1.48,1.48,0,0,0,51.992,63.5q0,.056,0,.112v20.69a1.625,1.625,0,0,0,1.588,1.661H71.343a1.625,1.625,0,0,0,1.589-1.66Zm-13.4-4.766-2.816,2.636a.505.505,0,0,1-.361.181.578.578,0,0,1-.4-.181L54.48,80.66a.55.55,0,0,1,.794-.758l1.083,1.155,2.455-2.311a.542.542,0,0,1,.722.794Zm0-5.777h0L56.719,76.4a.505.505,0,0,1-.361.181.578.578,0,0,1-.4-.181l-1.48-1.517a.55.55,0,0,1,.794-.758l1.083,1.155,2.455-2.311a.542.542,0,0,1,.722.794Zm0-5.777-2.816,2.636a.505.505,0,0,1-.361.181.578.578,0,0,1-.4-.181l-1.48-1.517a.55.55,0,0,1,.794-.758L56.357,69.5l2.455-2.311a.542.542,0,0,1,.722.794ZM70.043,81.635H61.738a.542.542,0,0,1,0-1.083h8.305a.542.542,0,0,1,0,1.083Zm0-5.777H61.738a.542.542,0,1,1,0-1.083h8.305a.542.542,0,0,1,0,1.083Zm0-5.777H61.738a.542.542,0,0,1,0-1.083h8.305a.542.542,0,0,1,0,1.083Z" transform="translate(-51.988 -57.838)" fill="#fafafa"/>
      </g>
    </g>
  </g>
</svg>
