<svg xmlns="http://www.w3.org/2000/svg" width="16.512" height="15.608" viewBox="0 0 16.512 15.608">
  <path id="tournament" d="M15.319,26.713V24.428H13.159V21.672H8.74v-.965a3.367,3.367,0,1,0-.968,0v.965H3.353v2.756H1.193v2.286H0v2.9H3.353v-2.9H2.16V25.4H5.514v1.318H4.321v2.9H7.674v-2.9H6.482V24.428H4.321V22.639h7.87v1.788h-2.16v2.286H8.838v2.9h3.353v-2.9H11V25.4h3.353v1.318H13.159v2.9h3.353v-2.9Zm-4.664-9.338a2.384,2.384,0,0,1-.358,1.259,1.515,1.515,0,0,1,0-2.518A2.385,2.385,0,0,1,10.655,17.375ZM9.627,15.408a2.48,2.48,0,0,0,0,3.935,2.392,2.392,0,0,1-2.742,0,2.48,2.48,0,0,0,0-3.935,2.392,2.392,0,0,1,2.742,0Zm-3.77,1.967a2.385,2.385,0,0,1,.358-1.259,1.515,1.515,0,0,1,0,2.518A2.385,2.385,0,0,1,5.857,17.375ZM2.386,28.649H.968v-.968H2.386Zm4.321,0H5.289v-.968H6.707Zm4.517,0H9.805v-.968h1.418Zm4.321,0H14.126v-.968h1.418Z" transform="translate(0 -14.008)" fill="#fff"/>
</svg>
