<svg xmlns="http://www.w3.org/2000/svg" width="48.176" height="36.132" viewBox="0 0 48.176 36.132">
  <path id="id-card" d="M42.656,3H5.52A5.525,5.525,0,0,0,0,8.52V33.612a5.525,5.525,0,0,0,5.52,5.52H42.656a5.525,5.525,0,0,0,5.52-5.52V8.52A5.525,5.525,0,0,0,42.656,3Zm-27.6,8.029a5.018,5.018,0,1,1-5.018,5.018A5.025,5.025,0,0,1,15.055,11.029ZM24.088,29.6A1.506,1.506,0,0,1,22.582,31.1H7.527A1.506,1.506,0,0,1,6.022,29.6v-1a5.525,5.525,0,0,1,5.52-5.52h7.026a5.525,5.525,0,0,1,5.52,5.52ZM40.648,31.1H29.608a1.505,1.505,0,1,1,0-3.011h11.04a1.505,1.505,0,0,1,0,3.011Zm0-8.029H29.608a1.505,1.505,0,1,1,0-3.011h11.04a1.505,1.505,0,0,1,0,3.011Zm0-8.029H29.608a1.505,1.505,0,1,1,0-3.011h11.04a1.505,1.505,0,0,1,0,3.011Z" transform="translate(0 -3)" fill="#fff"/>
</svg>
