<svg xmlns="http://www.w3.org/2000/svg" width="43.956" height="44.414" viewBox="0 0 43.956 44.414">
  <g id="report_1_" data-name="report (1)" transform="translate(0 0)">
    <path id="Path_300" data-name="Path 300" d="M32.9,28.942,30.3,31.578a.653.653,0,0,1-.279.191L23.5,33.933h4.015a.83.83,0,1,1,0,1.66H5.408a.83.83,0,0,1,0-1.66H22.673c-.071,0-.136-.077-.195-.135a.814.814,0,0,1-.2-.84l.5-1.515H5.408a.83.83,0,0,1,0-1.66H23.334L24.5,26.264a.7.7,0,0,1,.168-.306L32.9,17.708v-9.3H25.415a.783.783,0,0,1-.821-.784V0H0V44.413H32.9ZM5.408,25.631H17.135a.83.83,0,0,1,0,1.66H5.408a.83.83,0,1,1,0-1.66Zm22.1,14.113H5.408a.83.83,0,1,1,0-1.66h22.1a.83.83,0,1,1,0,1.66Zm0,0" transform="translate(0)" fill="#fff"/>
    <path id="Path_301" data-name="Path 301" d="M253,11.809v5.52h5.557Zm0,0" transform="translate(-226.746 -10.583)" fill="#fff"/>
    <path id="Path_302" data-name="Path 302" d="M234.945,274.456l3.842-1.285-2.558-2.558Zm0,0" transform="translate(-210.564 -242.532)" fill="#fff"/>
    <path id="Path_303" data-name="Path 303" d="M258.44,168.322l10.511-10.534-3.257-3.257L255.16,165.042Zm0,0" transform="translate(-228.682 -138.496)" fill="#fff"/>
    <path id="Path_304" data-name="Path 304" d="M373.765,122.244,370.517,119,368,121.511l3.254,3.254Zm0,0" transform="translate(-329.809 -106.648)" fill="#fff"/>
  </g>
</svg>
