<svg id="insight" xmlns="http://www.w3.org/2000/svg" width="28.797" height="28.797" viewBox="0 0 28.797 28.797">
  <path id="Path_51" data-name="Path 51" d="M181.291,122.211l-4.713-4.713a.843.843,0,0,0-1.193,0l-.6.6,6.5,6.5a.843.843,0,0,0,1.193,0l9.636-9.636a14.38,14.38,0,0,0-.878-1.508l-8.759,8.759A.843.843,0,0,1,181.291,122.211Z" transform="translate(-164.958 -107.071)" fill="#fff"/>
  <path id="Path_52" data-name="Path 52" d="M19.609,224.746a14.28,14.28,0,0,0,.771,1.615l7.957-7.957-1.193-1.193Z" transform="translate(-18.506 -204.994)" fill="#fff"/>
  <path id="Path_53" data-name="Path 53" d="M65.887,179.072a2.534,2.534,0,0,1-3.579,0l-4.116-4.116-8.213,8.213a14.294,14.294,0,0,0,25.07-13.259Z" transform="translate(-47.168 -160.353)" fill="#fff"/>
  <path id="Path_54" data-name="Path 54" d="M0,14.4a14.3,14.3,0,0,0,.519,3.551L9.234,9.234a2.533,2.533,0,0,1,3.579,0l4.116,4.116,8.312-8.312A14.331,14.331,0,0,0,0,14.4Z" fill="#fff"/>
</svg>
