<svg id="rugby-ball" xmlns="http://www.w3.org/2000/svg" width="29.684" height="29.685" viewBox="0 0 29.684 29.685">
  <path id="Path_320" data-name="Path 320" d="M2.409,29.212A22.724,22.724,0,0,0,29.219,2.4,2.483,2.483,0,0,0,27.281.462,22.715,22.715,0,0,0,.47,27.273a2.484,2.484,0,0,0,1.939,1.939ZM1.079,25.67a21.87,21.87,0,0,1-.093-5.152L2.048,21.58a26.361,26.361,0,0,0-.97,4.089Zm.048-6.241A21.87,21.87,0,0,1,2.1,15.492l1.751,1.751a29.056,29.056,0,0,0-1.492,3.422ZM2.582,28.36a1.613,1.613,0,0,1-.871-.495,24.945,24.945,0,0,1,1.03-5.591l2.272,2.272a.435.435,0,0,0,.615-.615L3.043,21.345A28.058,28.058,0,0,1,4.5,17.889l9.691,9.691a21.868,21.868,0,0,1-3.937.976L7.063,25.366a.435.435,0,0,0-.615.615L9.164,28.7a21.947,21.947,0,0,1-6.582-.336Zm12.5-1.115L4.921,17.081A29.254,29.254,0,0,1,6.5,14.5l.4.4a.435.435,0,0,0,.615-.615l-.5-.5q.283-.389.58-.771l.458.457a.435.435,0,0,0,.615-.615l-.525-.525q.3-.369.621-.729l.44.44a.435.435,0,0,0,.615-.615l-.47-.47q.324-.349.661-.69l.438.438a.435.435,0,0,0,.615-.615l-.434-.434q.346-.332.7-.651l.455.455a.435.435,0,0,0,.615-.615l-.415-.415q.366-.312.74-.611l.49.49a.435.435,0,1,0,.615-.615L13.4,7.281q.387-.291.782-.569l.446.446a.435.435,0,1,0,.615-.615l-.329-.329q1.059-.7,2.17-1.3L21.5,9.327a.435.435,0,0,0,.615-.615L17.9,4.492a28.061,28.061,0,0,1,3.457-1.457l7.21,7.21a21.867,21.867,0,0,1-.976,3.937L23.55,10.146a.435.435,0,0,0-.615.615l4.317,4.317A21.907,21.907,0,0,1,15.085,27.245ZM19.436,1.119l1.235,1.235A29.051,29.051,0,0,0,17.25,3.846L15.5,2.1a21.874,21.874,0,0,1,3.937-.976ZM28.7,9.156,22.282,2.735A24.948,24.948,0,0,1,27.873,1.7a1.613,1.613,0,0,1,.495.871A21.945,21.945,0,0,1,28.7,9.156ZM25.678,1.071a26.358,26.358,0,0,0-4.09.97L20.525.978a21.879,21.879,0,0,1,5.153.093ZM14.6,2.429l1.844,1.844q-1.1.61-2.157,1.314l-.58-.58a.435.435,0,0,0-.615.615l.467.467q-.393.279-.779.572l-.5-.5a.435.435,0,0,0-.615.615l.427.427q-.373.3-.738.613l-.5-.5a.435.435,0,0,0-.615.615l.465.465q-.354.32-.7.651l-.487-.487a.435.435,0,0,0-.615.615l.483.483q-.337.341-.662.689l-.45-.45a.435.435,0,0,0-.615.615l.48.48q-.318.36-.623.728l-.393-.393a.435.435,0,1,0-.615.615l.459.459q-.3.38-.583.768l-.412-.411a.435.435,0,0,0-.615.615l.515.515a30.165,30.165,0,0,0-1.59,2.563L2.437,14.6A21.908,21.908,0,0,1,14.6,2.429Z" transform="translate(-0.007 0.001)" fill="#fff"/>
</svg>
