<svg id="setting" xmlns="http://www.w3.org/2000/svg" width="32.629" height="32.629" viewBox="0 0 32.629 32.629">
  <circle id="Ellipse_4" data-name="Ellipse 4" cx="4" cy="4" r="4" transform="translate(12.314 12.314)" fill="none" stroke="#fff" stroke-linecap="round" stroke-linejoin="round" stroke-width="2"/>
  <path id="Path_49" data-name="Path 49" d="M26.617,20.491a2.3,2.3,0,0,0,.459,2.534l.084.084a2.786,2.786,0,1,1-3.94,3.94l-.084-.084a2.316,2.316,0,0,0-3.926,1.643v.237a2.784,2.784,0,0,1-5.569,0v-.125a2.3,2.3,0,0,0-1.5-2.1,2.3,2.3,0,0,0-2.534.459l-.084.084a2.786,2.786,0,1,1-3.94-3.94l.084-.084A2.316,2.316,0,0,0,4.021,19.21H3.784a2.784,2.784,0,1,1,0-5.569H3.91a2.3,2.3,0,0,0,2.1-1.5A2.3,2.3,0,0,0,5.553,9.6L5.469,9.52a2.786,2.786,0,1,1,3.94-3.94l.084.084a2.3,2.3,0,0,0,2.534.459h.111a2.3,2.3,0,0,0,1.392-2.1V3.784a2.784,2.784,0,1,1,5.569,0V3.91a2.316,2.316,0,0,0,3.926,1.643l.084-.084a2.786,2.786,0,1,1,3.94,3.94l-.084.084a2.3,2.3,0,0,0-.459,2.534v.111a2.3,2.3,0,0,0,2.1,1.392h.237a2.784,2.784,0,0,1,0,5.569h-.125A2.3,2.3,0,0,0,26.617,20.491Z" fill="none" stroke="#fff" stroke-linecap="round" stroke-linejoin="round" stroke-width="2"/>
</svg>
