<svg xmlns="http://www.w3.org/2000/svg" width="39.836" height="43.458" viewBox="0 0 39.836 43.458">
  <g id="share" transform="translate(0 0)">
    <path id="Path_65" data-name="Path 65" d="M326.438,21.885A5.885,5.885,0,1,1,320.553,16,5.885,5.885,0,0,1,326.438,21.885Zm0,0" transform="translate(-287.96 -14.642)" fill="#fff"/>
    <path id="Path_66" data-name="Path 66" d="M305.911,14.486a7.243,7.243,0,1,1,7.243-7.243A7.25,7.25,0,0,1,305.911,14.486Zm0-11.77a4.527,4.527,0,1,0,4.527,4.527,4.532,4.532,0,0,0-4.527-4.527Zm0,0" transform="translate(-273.318)" fill="#fff"/>
    <path id="Path_67" data-name="Path 67" d="M326.438,363.217a5.885,5.885,0,1,1-5.885-5.885A5.885,5.885,0,0,1,326.438,363.217Zm0,0" transform="translate(-287.96 -327.002)" fill="#fff"/>
    <path id="Path_68" data-name="Path 68" d="M305.911,355.818a7.243,7.243,0,1,1,7.243-7.243A7.25,7.25,0,0,1,305.911,355.818Zm0-11.77a4.527,4.527,0,1,0,4.527,4.527A4.532,4.532,0,0,0,305.911,344.048Zm0,0" transform="translate(-273.318 -312.36)" fill="#fff"/>
    <path id="Path_69" data-name="Path 69" d="M27.77,192.553a5.885,5.885,0,1,1-5.885-5.885A5.885,5.885,0,0,1,27.77,192.553Zm0,0" transform="translate(-14.642 -170.824)" fill="#fff"/>
    <path id="Path_70" data-name="Path 70" d="M7.243,185.154a7.243,7.243,0,1,1,7.243-7.243,7.25,7.25,0,0,1-7.243,7.243Zm0-11.77a4.527,4.527,0,1,0,4.527,4.527,4.532,4.532,0,0,0-4.527-4.527Zm0,0" transform="translate(0 -156.182)" fill="#fff"/>
    <path id="Path_71" data-name="Path 71" d="M116.161,103.417a1.811,1.811,0,0,1-.9-3.385l16.8-9.579a1.811,1.811,0,1,1,1.793,3.147l-16.8,9.579a1.8,1.8,0,0,1-.894.237Zm0,0" transform="translate(-104.643 -82.557)" fill="#fff"/>
    <path id="Path_72" data-name="Path 72" d="M132.982,279.421a1.8,1.8,0,0,1-.895-.237l-16.8-9.579a1.811,1.811,0,0,1,1.793-3.147l16.8,9.579a1.811,1.811,0,0,1-.9,3.385Zm0,0" transform="translate(-104.664 -243.622)" fill="#fff"/>
  </g>
</svg>
