<svg id="surface1" xmlns="http://www.w3.org/2000/svg" width="46.403" height="46.403" viewBox="0 0 46.403 46.403">
  <path id="Path_6" data-name="Path 6" d="M99.3,20.707a11.969,11.969,0,0,1,3.789-2.562,7.1,7.1,0,1,1,9.367,0,11.994,11.994,0,0,1,6.377,6.408,14.773,14.773,0,1,0-22.117,0A11.95,11.95,0,0,1,99.3,20.707Zm0,0" transform="translate(-84.571)" fill="#fff"/>
  <path id="Path_7" data-name="Path 7" d="M157.918,226.394a14.741,14.741,0,0,0,17.778,0,9.267,9.267,0,0,0-17.778,0Zm0,0" transform="translate(-143.606 -199.83)" fill="#fff"/>
  <path id="Path_8" data-name="Path 8" d="M216.4,97.384a4.384,4.384,0,1,0-4.384,4.384A4.389,4.389,0,0,0,216.4,97.384Zm0,0" transform="translate(-188.811 -84.571)" fill="#fff"/>
  <path id="Path_9" data-name="Path 9" d="M410.5,367h9.2v13.141h-9.2Zm0,0" transform="translate(-373.296 -333.739)" fill="#fff"/>
  <path id="Path_10" data-name="Path 10" d="M0,380.141H34.485V367H0Zm25.966-7.93h2.719v2.719H25.966Zm-5.03,0h2.719v2.719H20.936Zm-5.03,0h2.719v2.719H15.906Zm-5.03,0h2.719v2.719H10.876Zm-5.03,0H8.565v2.719H5.846Zm0,0" transform="translate(0 -333.739)" fill="#fff"/>
</svg>
