<svg id="weather" xmlns="http://www.w3.org/2000/svg" width="26.312" height="43.457" viewBox="0 0 26.312 43.457">
  <path id="Path_122" data-name="Path 122" d="M123.9,0h-3.211V2.9a2.2,2.2,0,0,1-2.2,2.2h-8.659a2.2,2.2,0,0,1-2.2-2.2V0h-3.22A3.417,3.417,0,0,0,101,3.413V40.045a3.417,3.417,0,0,0,3.413,3.413H123.9a3.416,3.416,0,0,0,3.413-3.413V3.413A3.416,3.416,0,0,0,123.9,0Zm-6.256,40.071h-6.967a1.273,1.273,0,1,1,0-2.546h6.967a1.273,1.273,0,0,1,0,2.546ZM120.974,23h-1.051a5.878,5.878,0,0,1-.789,1.908l.749.752a1.273,1.273,0,0,1-1.8,1.8l-.743-.745a5.859,5.859,0,0,1-1.9.794v1.06a1.273,1.273,0,0,1-2.546,0V27.509a5.843,5.843,0,0,1-1.9-.789l-.741.743a1.273,1.273,0,0,1-1.8-1.8l.744-.746A5.9,5.9,0,0,1,108.391,23H107.34a1.273,1.273,0,0,1,0-2.546h1.051a5.893,5.893,0,0,1,.794-1.917l-.748-.75a1.273,1.273,0,1,1,1.8-1.8l.744.746a5.849,5.849,0,0,1,1.9-.789V14.89a1.273,1.273,0,1,1,2.546,0v1.059a5.827,5.827,0,0,1,1.9.792l.748-.75a1.273,1.273,0,1,1,1.8,1.8l-.752.754h0a5.88,5.88,0,0,1,.792,1.911h1.052a1.273,1.273,0,1,1,0,2.546Z" transform="translate(-101 0)" fill="#fff"/>
  <path id="Path_123" data-name="Path 123" d="M209.15,0h7.962V2.555H209.15Z" transform="translate(-199.97 0)" fill="#fff"/>
  <path id="Path_124" data-name="Path 124" d="M219.807,216.27a3.372,3.372,0,1,0,3.358,3.372A3.368,3.368,0,0,0,219.807,216.27Z" transform="translate(-206.651 -197.913)" fill="#fff"/>
</svg>
