<svg id="settings_1_" data-name="settings (1)" xmlns="http://www.w3.org/2000/svg" width="28.419" height="28.419" viewBox="0 0 28.419 28.419">
  <g id="Group_383" data-name="Group 383">
    <g id="Group_382" data-name="Group 382">
      <path id="Path_58" data-name="Path 58" d="M25.293,11.794A12.058,12.058,0,0,0,23.73,8.1l1.421-2.984L23.162,3.126,20.178,4.547a10.962,10.962,0,0,0-3.552-1.421L15.631,0H12.789L11.652,3.126A11.305,11.305,0,0,0,8.1,4.689L5.115,3.268,3.126,5.115,4.547,8.1a10.962,10.962,0,0,0-1.421,3.552L0,12.789v2.842l3.126,1.137A13.266,13.266,0,0,0,4.547,20.32L3.126,23.3l1.989,1.989L8.1,23.872a11.305,11.305,0,0,0,3.552,1.563l1.137,2.984h2.842l1.137-3.126c.426-.142.995-.284,1.421-.426l-2.274-2.274A8.539,8.539,0,1,1,14.21,5.684a8.4,8.4,0,0,1,8.384,9.663l2.416,2.416a3.344,3.344,0,0,0,.284-1.137l3.126-.995V12.789Z" fill="#fff"/>
    </g>
  </g>
  <g id="Group_385" data-name="Group 385" transform="translate(8.574 8.312)">
    <g id="Group_384" data-name="Group 384">
      <path id="Path_59" data-name="Path 59" d="M173.747,166.158l-8.384-8.384a5.691,5.691,0,0,0-6.679-7.815l2.558,2.558a2.813,2.813,0,1,1-3.979,3.979l-2.558-2.416a5.616,5.616,0,0,0,7.531,6.679l8.384,8.384a2.06,2.06,0,0,0,2.984,0A2.191,2.191,0,0,0,173.747,166.158Z" transform="translate(-154.47 -149.745)" fill="#fff"/>
    </g>
  </g>
</svg>
