<svg xmlns="http://www.w3.org/2000/svg" width="26.999" height="26.999" viewBox="0 0 26.999 26.999">
  <g id="user_4_" data-name="user (4)" transform="translate(0.001)">
    <path id="Path_305" data-name="Path 305" d="M133.181,335.266a6.845,6.845,0,0,0-6.837,6.837c0,.218.011.434.031.647a13.534,13.534,0,0,0,13.612,0c.02-.213.031-.428.031-.647A6.845,6.845,0,0,0,133.181,335.266Zm0,0" transform="translate(-119.682 -317.587)" fill="#fafafa"/>
    <path id="Path_306" data-name="Path 306" d="M23.044,3.954A13.5,13.5,0,0,0,3.953,23.045a13.683,13.683,0,0,0,1.139,1.018A8.435,8.435,0,0,1,10.3,16.729a5.874,5.874,0,1,1,6.4,0,8.435,8.435,0,0,1,5.207,7.333,13.721,13.721,0,0,0,1.139-1.018,13.5,13.5,0,0,0,0-19.091Zm0,0" transform="translate(0 0)" fill="#fafafa"/>
    <path id="Path_307" data-name="Path 307" d="M183.186,146.761a4.292,4.292,0,1,0-4.292,4.292A4.3,4.3,0,0,0,183.186,146.761Zm0,0" transform="translate(-165.395 -134.956)" fill="#fafafa"/>
  </g>
</svg>
