<svg xmlns="http://www.w3.org/2000/svg" width="30.506" height="25.877" viewBox="0 0 30.506 25.877">
  <g id="group_1_" data-name="group (1)" transform="translate(0 -38.84)">
    <g id="Group_1908" data-name="Group 1908" transform="translate(23.743 52.811)">
      <g id="Group_1907" data-name="Group 1907">
        <path id="Path_334" data-name="Path 334" d="M400.853,273.32h-2.359a6.137,6.137,0,0,1,.372,2.109v8.916a2.63,2.63,0,0,1-.152.881h3.9a2.645,2.645,0,0,0,2.642-2.642v-4.861A4.409,4.409,0,0,0,400.853,273.32Z" transform="translate(-398.494 -273.32)" fill="#fafafa"/>
      </g>
    </g>
    <g id="Group_1910" data-name="Group 1910" transform="translate(0 52.811)">
      <g id="Group_1909" data-name="Group 1909" transform="translate(0 0)">
        <path id="Path_335" data-name="Path 335" d="M6.391,275.43a6.136,6.136,0,0,1,.372-2.109H4.4a4.409,4.409,0,0,0-4.4,4.4v4.861a2.645,2.645,0,0,0,2.642,2.642h3.9a2.63,2.63,0,0,1-.152-.881Z" transform="translate(0 -273.321)" fill="#fafafa"/>
      </g>
    </g>
    <g id="Group_1912" data-name="Group 1912" transform="translate(8.152 50.516)">
      <g id="Group_1911" data-name="Group 1911">
        <path id="Path_336" data-name="Path 336" d="M146.626,234.815h-5.393a4.409,4.409,0,0,0-4.4,4.4v8.916a.881.881,0,0,0,.881.881h12.439a.881.881,0,0,0,.881-.881v-8.916A4.409,4.409,0,0,0,146.626,234.815Z" transform="translate(-136.829 -234.815)" fill="#fafafa"/>
      </g>
    </g>
    <g id="Group_1914" data-name="Group 1914" transform="translate(9.957 38.84)">
      <g id="Group_1913" data-name="Group 1913" transform="translate(0 0)">
        <path id="Path_337" data-name="Path 337" d="M172.41,38.84a5.3,5.3,0,1,0,5.3,5.3A5.3,5.3,0,0,0,172.41,38.84Z" transform="translate(-167.114 -38.84)" fill="#fafafa"/>
      </g>
    </g>
    <g id="Group_1916" data-name="Group 1916" transform="translate(1.993 43.776)">
      <g id="Group_1915" data-name="Group 1915">
        <path id="Path_338" data-name="Path 338" d="M37.4,121.689a3.959,3.959,0,1,0,3.961,3.961A3.965,3.965,0,0,0,37.4,121.689Z" transform="translate(-33.443 -121.689)" fill="#fafafa"/>
      </g>
    </g>
    <g id="Group_1918" data-name="Group 1918" transform="translate(20.592 43.776)">
      <g id="Group_1917" data-name="Group 1917">
        <path id="Path_339" data-name="Path 339" d="M349.568,121.689a3.961,3.961,0,1,0,3.961,3.961A3.965,3.965,0,0,0,349.568,121.689Z" transform="translate(-345.607 -121.689)" fill="#fafafa"/>
      </g>
    </g>
  </g>
</svg>
