<svg xmlns="http://www.w3.org/2000/svg" width="27.615" height="27.686" viewBox="0 0 27.615 27.686">
  <g id="settings" transform="translate(-0.372 -0.001)">
    <path id="Path_55" data-name="Path 55" d="M139.095,13.273a2.3,2.3,0,0,1,2.661.419l.932-.932a6.565,6.565,0,0,0,8.655-7.251.6.6,0,0,0-1.013-.327l-1.384,1.384a2.886,2.886,0,1,1-4.081-4.081L146.248,1.1a.6.6,0,0,0-.328-1.013,6.564,6.564,0,0,0-7.212,8.757l-2.021,2.021Z" transform="translate(-123.44 0)" fill="#fff"/>
    <path id="Path_56" data-name="Path 56" d="M11.971,156.309l-2.4-2.4L1.19,162.295a2.791,2.791,0,0,0,3.948,3.948l7.227-7.227A2.3,2.3,0,0,1,11.971,156.309Z" transform="translate(0 -139.373)" fill="#fff"/>
    <path id="Path_57" data-name="Path 57" d="M17.555,30.867a.878.878,0,0,0-1.242,0l-.5.5L6.9,22.453l.417-.417a.878.878,0,0,0-.1-1.328L3.576,18.029a.878.878,0,0,0-1.142.086L.89,19.66A.878.878,0,0,0,.8,20.8l2.679,3.637a.878.878,0,0,0,1.328.1l.417-.417,8.915,8.915-.536.536a.878.878,0,0,0,0,1.242l8.225,8.225a2.791,2.791,0,0,0,3.948-3.948Z" transform="translate(-0.236 -16.17)" fill="#fff"/>
  </g>
</svg>
