<svg xmlns="http://www.w3.org/2000/svg" width="20" height="20" viewBox="0 0 20 20">
  <g id="user_4_" data-name="user (4)" transform="translate(0)">
    <path id="Path_305" data-name="Path 305" d="M131.409,335.266a5.07,5.07,0,0,0-5.065,5.065c0,.162.008.321.023.479a10.026,10.026,0,0,0,10.084,0c.015-.158.023-.317.023-.479A5.07,5.07,0,0,0,131.409,335.266Zm0,0" transform="translate(-121.409 -322.17)" fill="#fafafa"/>
    <path id="Path_306" data-name="Path 306" d="M17.071,2.929A10,10,0,0,0,2.928,17.071a10.136,10.136,0,0,0,.844.754A6.249,6.249,0,0,1,7.63,12.393a4.351,4.351,0,1,1,4.74,0,6.249,6.249,0,0,1,3.858,5.432,10.164,10.164,0,0,0,.844-.754,10,10,0,0,0,0-14.142Zm0,0" transform="translate(0)" fill="#fafafa"/>
    <path id="Path_307" data-name="Path 307" d="M180.96,145.648a3.18,3.18,0,1,0-3.18,3.18A3.183,3.183,0,0,0,180.96,145.648Zm0,0" transform="translate(-167.781 -136.903)" fill="#fafafa"/>
  </g>
</svg>
