<svg xmlns="http://www.w3.org/2000/svg" width="29.17" height="29.17" viewBox="0 0 29.17 29.17">
  <path id="wheel" d="M28.076,12.407,26.5,12.249a12.138,12.138,0,0,0-.425-1.6l1.283-.923A1.213,1.213,0,0,0,27.7,8.132l-.97-1.679a1.213,1.213,0,0,0-1.552-.5L23.743,6.6a12.165,12.165,0,0,0-1.174-1.174l.649-1.438a1.214,1.214,0,0,0-.5-1.552l-1.678-.969a1.212,1.212,0,0,0-1.595.343L18.522,3.1a11.953,11.953,0,0,0-1.6-.425L16.764,1.1A1.213,1.213,0,0,0,15.554,0H13.615a1.211,1.211,0,0,0-1.209,1.094l-.158,1.575a12.138,12.138,0,0,0-1.6.425L9.726,1.812a1.212,1.212,0,0,0-1.595-.343l-1.677.969a1.213,1.213,0,0,0-.5,1.553L6.6,5.428A11.9,11.9,0,0,0,5.428,6.6L3.99,5.952a1.213,1.213,0,0,0-1.552.5L1.469,8.131a1.212,1.212,0,0,0,.343,1.595l1.283.923a11.953,11.953,0,0,0-.425,1.6L1.1,12.406A1.213,1.213,0,0,0,0,13.616v1.939a1.211,1.211,0,0,0,1.094,1.209l1.575.158a12.138,12.138,0,0,0,.425,1.6l-1.283.923a1.213,1.213,0,0,0-.343,1.595l.969,1.678a1.211,1.211,0,0,0,1.552.5l1.437-.649A12.165,12.165,0,0,0,6.6,23.743l-.649,1.438a1.214,1.214,0,0,0,.5,1.552L8.13,27.7a1.21,1.21,0,0,0,1.595-.343l.923-1.283a11.952,11.952,0,0,0,1.6.425l.158,1.575a1.215,1.215,0,0,0,1.212,1.094h1.939a1.211,1.211,0,0,0,1.209-1.094l.158-1.575a12.138,12.138,0,0,0,1.6-.425l.923,1.283a1.213,1.213,0,0,0,1.595.343l1.679-.969a1.213,1.213,0,0,0,.5-1.552l-.649-1.437a12.165,12.165,0,0,0,1.174-1.174l1.438.649a1.212,1.212,0,0,0,1.552-.5L27.7,21.04a1.213,1.213,0,0,0-.343-1.595l-1.283-.923a11.953,11.953,0,0,0,.425-1.6l1.575-.158a1.215,1.215,0,0,0,1.094-1.212V13.615A1.211,1.211,0,0,0,28.076,12.407ZM14.585,6.077A8.514,8.514,0,0,1,23,13.37h-5.63a3.041,3.041,0,0,0-2.781-1.823,3.008,3.008,0,0,0-.332.034L11.431,6.69a8.456,8.456,0,0,1,3.154-.613ZM6.077,14.585a8.493,8.493,0,0,1,3.25-6.676l2.819,4.881a2.987,2.987,0,0,0,0,3.589L9.327,21.26A8.49,8.49,0,0,1,6.077,14.585Zm8.508,8.508a8.432,8.432,0,0,1-3.154-.614l2.823-4.89a2.956,2.956,0,0,0,.331.034A3.041,3.041,0,0,0,17.366,15.8H23A8.514,8.514,0,0,1,14.585,23.093Z" fill="#fff"/>
</svg>
